<?xml version="1.0" standalone="no"?>
<!DOCTYPE svg PUBLIC "-//W3C//DTD SVG 20010904//EN"
 "http://www.w3.org/TR/2001/REC-SVG-20010904/DTD/svg10.dtd">
<svg version="1.0" xmlns="http://www.w3.org/2000/svg"
 width="130.000000pt" height="130.000000pt" viewBox="0 0 130.000000 130.000000"
 preserveAspectRatio="xMidYMid meet">
<metadata>
Created by potrace 1.16, written by Peter Selinger 2001-2019
</metadata>
<g transform="translate(0.000000,130.000000) scale(0.100000,-0.100000)"
fill="#000000" stroke="none">
<path d="M460 1283 c-14 -3 -68 -25 -120 -49 -89 -41 -95 -45 -101 -78 -3 -21
-23 -53 -50 -84 -144 -161 -197 -371 -147 -582 15 -63 74 -189 91 -196 9 -3
29 2 46 10 37 20 70 20 77 2 3 -7 -2 -40 -12 -72 l-17 -58 34 -29 c100 -84
299 -145 434 -134 102 9 104 10 95 60 -4 23 -11 68 -15 100 -6 52 -5 57 13 57
17 0 22 -11 32 -84 7 -47 16 -90 20 -96 10 -16 41 0 36 19 -12 44 -28 162 -23
167 18 18 35 -11 47 -80 14 -81 18 -90 39 -77 11 7 10 21 -3 79 -20 89 -20 92
2 92 15 0 22 -13 32 -57 19 -88 20 -89 72 -48 l47 35 -70 151 c-38 84 -67 154
-65 157 10 9 226 -18 262 -33 20 -8 38 -14 39 -13 1 2 7 23 13 48 50 209 -1
415 -146 580 -56 64 -174 142 -254 169 -92 30 -341 57 -408 44z m172 -39 c92
-31 155 -112 173 -221 4 -24 3 -43 -2 -43 -4 0 -21 21 -36 48 -28 47 -28 47
-21 12 3 -19 12 -45 20 -57 27 -43 20 -50 -65 -55 -51 -3 -89 -11 -105 -21
-14 -9 -40 -17 -58 -16 -18 1 -72 2 -121 2 -74 2 -87 4 -87 19 0 9 5 20 10 23
6 3 10 22 10 41 0 42 20 94 45 114 11 9 39 15 74 15 68 0 76 21 16 42 -39 14
-98 13 -155 -3 -23 -7 -24 -6 -11 10 8 9 28 24 44 33 21 11 26 17 17 23 -9 6
-7 11 11 20 61 33 168 39 241 14z m166 -366 c8 -25 11 -27 9 -9 -2 30 19 39
28 12 8 -26 -24 -143 -42 -154 -9 -5 -13 -30 -13 -73 0 -36 -5 -75 -11 -87
-18 -35 -72 -87 -90 -87 -9 0 -17 -6 -16 -12 1 -18 -26 -78 -34 -78 -4 0 -24
15 -43 33 -32 31 -35 38 -33 84 1 36 6 49 15 46 8 -4 10 0 6 11 -3 9 -10 16
-15 16 -5 0 -9 4 -9 8 0 7 61 23 129 35 8 1 18 -9 21 -23 8 -27 9 -25 30 42
13 43 9 53 -41 96 -40 35 -59 40 -59 17 0 -17 -30 -35 -58 -35 -33 0 -50 30
-46 84 4 62 19 79 44 49 20 -26 30 -29 30 -10 0 8 18 12 60 11 68 -1 79 -7 62
-34 -19 -31 -14 -38 8 -11 11 13 20 35 20 50 0 25 16 51 31 51 3 0 11 -15 17
-32z m17 -414 c0 -43 -3 -95 -8 -114 -6 -32 -6 -33 5 -10 6 14 19 61 28 105
16 74 18 78 28 53 11 -27 42 -188 42 -219 0 -20 -20 -25 -131 -34 l-87 -7 -12
38 c-7 22 -17 45 -23 52 -16 21 10 14 56 -14 l42 -27 -22 25 c-28 30 -29 38
-3 38 16 0 20 7 20 35 0 32 -2 35 -31 35 l-31 0 46 45 c24 25 48 55 51 66 4
11 12 18 18 16 8 -2 12 -32 12 -83z m-353 -24 c22 -16 47 -30 55 -30 7 0 13
-4 13 -10 0 -5 -9 -10 -20 -10 -16 0 -20 -7 -20 -35 0 -32 2 -35 31 -35 27 0
30 -3 23 -22 -6 -21 -4 -21 25 6 22 22 31 25 31 14 0 -27 -29 -87 -47 -96 -27
-13 -163 -35 -171 -27 -12 11 -15 185 -4 185 6 0 21 -19 35 -42 14 -24 40 -56
58 -73 l32 -30 -27 37 c-34 45 -66 128 -66 168 0 17 2 30 5 30 3 0 24 -13 47
-30z"/>
</g>
</svg>
